<svg xmlns="http://www.w3.org/2000/svg" width="256" height="256" viewBox="0 0 256 256">
  <defs>
    <linearGradient id="sky" x1="0" y1="0" x2="0" y2="1"><stop offset="0" stop-color="#1d2457"/><stop offset="0.55" stop-color="#7a4d8f"/><stop offset="1" stop-color="#ff9e6b"/></linearGradient>
    <linearGradient id="gold" x1="0" y1="0" x2="0" y2="1"><stop offset="0" stop-color="#fff0a0"/><stop offset="1" stop-color="#e0a815"/></linearGradient>
  </defs>
  <rect width="256" height="256" rx="56" fill="url(#sky)"/>
  <rect y="170" width="256" height="86" fill="#6b4a2f"/>
  <rect y="164" width="256" height="12" fill="#4caf50"/>
  <circle cx="128" cy="150" r="70" fill="#ffd447" opacity="0.25"/>
  <path d="M70 182 L100 120 L150 108 L190 140 L180 186 Z" fill="url(#gold)" stroke="#a87908" stroke-width="5" stroke-linejoin="round"/>
  <path d="M100 120 L130 150 L150 108 M130 150 L180 186 M130 150 L70 182" stroke="#c99410" stroke-width="4" fill="none"/>
  <path d="M104 128 L122 142 L134 120 Z" fill="#fff" opacity="0.55"/>
  <line x1="60" y1="70" x2="150" y2="150" stroke="#8a5a36" stroke-width="12" stroke-linecap="round"/>
  <path d="M30 92 Q70 40 120 44" stroke="#c0c7d1" stroke-width="14" fill="none" stroke-linecap="round"/>
</svg>
